<svg data-v-423bf9ae="" xmlns="http://www.w3.org/2000/svg" viewBox="0 0 163 90" class="iconLeft"><!----><!----><!----><g data-v-423bf9ae="" id="94fc31a7-e2b0-4afb-898c-7b89a32e67e7" fill="#361414" transform="matrix(5.976095640236052,0,0,5.976095640236052,66.91372619352481,-9.442232557282438)"><path d="M4.30 14.13L4.30 14.13Q3.32 14.13 2.58 13.74L2.58 13.74L2.58 13.74Q1.83 13.36 1.42 12.65L1.42 12.65L1.42 12.65Q1.01 11.94 1.01 11.02L1.01 11.02L1.01 7.17L1.01 7.17Q1.01 6.26 1.42 5.56L1.42 5.56L1.42 5.56Q1.83 4.86 2.58 4.47L2.58 4.47L2.58 4.47Q3.32 4.09 4.30 4.09L4.30 4.09L4.30 4.09Q5.28 4.09 6.02 4.47L6.02 4.47L6.02 4.47Q6.76 4.84 7.17 5.53L7.17 5.53L7.17 5.53Q7.59 6.22 7.59 7.11L7.59 7.11L7.59 7.11Q7.59 7.24 7.41 7.27L7.41 7.27L6.78 7.31L6.73 7.31L6.73 7.31Q6.68 7.31 6.64 7.28L6.64 7.28L6.64 7.28Q6.59 7.25 6.59 7.22L6.59 7.22L6.59 7.14L6.59 7.14Q6.59 6.15 5.96 5.55L5.96 5.55L5.96 5.55Q5.33 4.96 4.30 4.96L4.30 4.96L4.30 4.96Q3.26 4.96 2.63 5.56L2.63 5.56L2.63 5.56Q2.00 6.16 2.00 7.14L2.00 7.14L2.00 11.06L2.00 11.06Q2.00 12.04 2.63 12.64L2.63 12.64L2.63 12.64Q3.26 13.24 4.30 13.24L4.30 13.24L4.30 13.24Q5.33 13.24 5.96 12.65L5.96 12.65L5.96 12.65Q6.59 12.05 6.59 11.06L6.59 11.06L6.59 11.06Q6.59 10.89 6.78 10.91L6.78 10.91L7.41 10.93L7.41 10.93Q7.59 10.93 7.59 11.00L7.59 11.00L7.59 11.07L7.59 11.07Q7.59 11.98 7.17 12.68L7.17 12.68L7.17 12.68Q6.76 13.37 6.02 13.75L6.02 13.75L6.02 13.75Q5.28 14.13 4.30 14.13L4.30 14.13ZM12.67 14.11L12.67 14.11Q11.65 14.11 10.88 13.79L10.88 13.79L10.88 13.79Q10.12 13.47 9.71 12.87L9.71 12.87L9.71 12.87Q9.30 12.28 9.30 11.49L9.30 11.49L9.30 11.10L9.30 11.10Q9.30 10.92 9.48 10.92L9.48 10.92L10.08 10.92L10.08 10.92Q10.26 10.92 10.26 11.10L10.26 11.10L10.26 11.44L10.26 11.44Q10.26 12.24 10.93 12.74L10.93 12.74L10.93 12.74Q11.61 13.24 12.74 13.24L12.74 13.24L12.74 13.24Q13.82 13.24 14.38 12.79L14.38 12.79L14.38 12.79Q14.94 12.33 14.94 11.58L14.94 11.58L14.94 11.58Q14.94 11.09 14.68 10.74L14.68 10.74L14.68 10.74Q14.42 10.39 13.89 10.08L13.89 10.08L13.89 10.08Q13.36 9.77 12.36 9.37L12.36 9.37L12.36 9.37Q11.31 8.95 10.73 8.63L10.73 8.63L10.73 8.63Q10.15 8.32 9.79 7.82L9.79 7.82L9.79 7.82Q9.44 7.32 9.44 6.57L9.44 6.57L9.44 6.57Q9.44 5.39 10.25 4.74L10.25 4.74L10.25 4.74Q11.07 4.09 12.52 4.09L12.52 4.09L12.52 4.09Q14.06 4.09 14.95 4.82L14.95 4.82L14.95 4.82Q15.85 5.54 15.85 6.75L15.85 6.75L15.85 7.01L15.85 7.01Q15.85 7.20 15.67 7.20L15.67 7.20L15.05 7.20L15.05 7.20Q14.87 7.20 14.87 7.01L14.87 7.01L14.87 6.80L14.87 6.80Q14.87 5.99 14.24 5.47L14.24 5.47L14.24 5.47Q13.61 4.96 12.46 4.96L12.46 4.96L12.46 4.96Q11.47 4.96 10.94 5.36L10.94 5.36L10.94 5.36Q10.42 5.77 10.42 6.54L10.42 6.54L10.42 6.54Q10.42 7.04 10.67 7.37L10.67 7.37L10.67 7.37Q10.93 7.70 11.42 7.95L11.42 7.95L11.42 7.95Q11.90 8.19 12.89 8.58L12.89 8.58L12.89 8.58Q13.92 9.00 14.55 9.37L14.55 9.37L14.55 9.37Q15.18 9.73 15.55 10.25L15.55 10.25L15.55 10.25Q15.93 10.78 15.93 11.54L15.93 11.54L15.93 11.54Q15.93 12.70 15.07 13.40L15.07 13.40L15.07 13.40Q14.21 14.11 12.67 14.11L12.67 14.11Z"></path></g><defs data-v-423bf9ae=""><linearGradient data-v-423bf9ae="" gradientTransform="rotate(25)" id="a2e7aa9a-a41c-4184-ac0f-2db3cfa879d5" x1="0%" y1="0%" x2="100%" y2="0%"><stop data-v-423bf9ae="" offset="0%" style="stop-color: rgb(240, 0, 121); stop-opacity: 1;"></stop><stop data-v-423bf9ae="" offset="100%" style="stop-color: rgb(242, 160, 65); stop-opacity: 1;"></stop></linearGradient></defs><g data-v-423bf9ae="" id="4d7441f8-0f1d-48f9-9c57-6fdf686bb74e" transform="matrix(1.3236072282440634,0,0,1.3236072282440634,-39.18235969633855,-21.178363128067787)" stroke="none" fill="url(#a2e7aa9a-a41c-4184-ac0f-2db3cfa879d5)"><path d="M60.01 16.002L29.998 55.014h17.008l-8.008 28.984 31.004-39.012H52.994z"></path></g><!----></svg>