<svg data-v-423bf9ae="" xmlns="http://www.w3.org/2000/svg" viewBox="0 0 501.8655484610364 163" class="iconAbove"><!----><!----><!----><g data-v-423bf9ae="" id="a97ac101-b740-4b8b-a5f8-44d4a57fea66" fill="#2F190E" transform="matrix(4.33839511702164,0,0,4.33839511702164,-4.555318405873749,90.85249697865174)"><path d="M7.45 12.53L7.45 12.53Q6.62 14.15 4.47 14.15L4.47 14.15L4.47 14.15Q2.80 14.15 1.93 12.99L1.93 12.99L1.93 12.99Q1.05 11.83 1.05 9.13L1.05 9.13L1.05 9.13Q1.05 6.43 1.93 5.27L1.93 5.27L1.93 5.27Q2.81 4.12 4.48 4.12L4.48 4.12L4.48 4.12Q6.55 4.12 7.43 5.75L7.43 5.75L6.50 6.24L6.50 6.24Q6.17 5.61 5.68 5.32L5.68 5.32L5.68 5.32Q5.18 5.03 4.48 5.03L4.48 5.03L4.48 5.03Q3.32 5.03 2.72 5.97L2.72 5.97L2.72 5.97Q2.11 6.92 2.11 9.13L2.11 9.13L2.11 9.13Q2.11 11.34 2.71 12.29L2.71 12.29L2.71 12.29Q3.30 13.24 4.47 13.24L4.47 13.24L4.47 13.24Q5.92 13.24 6.51 12.04L6.51 12.04L7.45 12.53ZM12.64 14.15L12.64 14.15Q11.33 14.15 10.49 13.27L10.49 13.27L10.49 13.27Q9.65 12.38 9.65 10.49L9.65 10.49L9.65 10.49Q9.65 8.60 10.49 7.71L10.49 7.71L10.49 7.71Q11.33 6.83 12.64 6.83L12.64 6.83L12.64 6.83Q13.94 6.83 14.78 7.71L14.78 7.71L14.78 7.71Q15.62 8.60 15.62 10.49L15.62 10.49L15.62 10.49Q15.62 12.38 14.78 13.27L14.78 13.27L14.78 13.27Q13.94 14.15 12.64 14.15L12.64 14.15ZM12.64 13.24L12.64 13.24Q13.47 13.24 14.01 12.59L14.01 12.59L14.01 12.59Q14.56 11.94 14.56 10.49L14.56 10.49L14.56 10.49Q14.56 9.04 14.01 8.39L14.01 8.39L14.01 8.39Q13.47 7.74 12.64 7.74L12.64 7.74L12.64 7.74Q11.82 7.74 11.26 8.39L11.26 8.39L11.26 8.39Q10.71 9.04 10.71 10.49L10.71 10.49L10.71 10.49Q10.71 11.94 11.26 12.59L11.26 12.59L11.26 12.59Q11.80 13.24 12.64 13.24L12.64 13.24ZM22.62 2.80L23.63 2.80L23.63 14L22.76 14L22.62 13.01L22.62 12.98L22.62 12.98Q22.27 13.52 21.73 13.84L21.73 13.84L21.73 13.84Q21.18 14.15 20.47 14.15L20.47 14.15L20.47 14.15Q19.19 14.15 18.46 13.24L18.46 13.24L18.46 13.24Q17.72 12.33 17.72 10.49L17.72 10.49L17.72 10.49Q17.72 6.85 20.33 6.85L20.33 6.85L20.33 6.85Q21.07 6.85 21.66 7.16L21.66 7.16L21.66 7.16Q22.26 7.48 22.62 8.04L22.62 8.04L22.62 2.80ZM20.68 13.24L20.68 13.24Q21.45 13.24 21.97 12.69L21.97 12.69L21.97 12.69Q22.50 12.14 22.62 11.47L22.62 11.47L22.62 9.45L22.62 9.45Q22.41 8.82 21.86 8.29L21.86 8.29L21.86 8.29Q21.31 7.76 20.54 7.76L20.54 7.76L20.54 7.76Q19.57 7.76 19.14 8.39L19.14 8.39L19.14 8.39Q18.72 9.02 18.72 10.49L18.72 10.49L18.72 10.49Q18.72 11.93 19.21 12.59L19.21 12.59L19.21 12.59Q19.70 13.24 20.68 13.24L20.68 13.24ZM29.82 6.83L29.82 6.83Q31.22 6.83 31.98 7.79L31.98 7.79L31.98 7.79Q32.73 8.75 32.73 10.33L32.73 10.33L32.73 10.33Q32.73 10.60 32.72 10.74L32.72 10.74L27.69 10.74L27.69 10.74Q27.75 12.03 28.29 12.63L28.29 12.63L28.29 12.63Q28.83 13.24 29.75 13.24L29.75 13.24L29.75 13.24Q30.39 13.24 30.88 12.95L30.88 12.95L30.88 12.95Q31.36 12.66 31.65 12.18L31.65 12.18L32.56 12.67L32.56 12.67Q32.14 13.34 31.41 13.75L31.41 13.75L31.41 13.75Q30.67 14.15 29.78 14.15L29.78 14.15L29.78 14.15Q28.92 14.15 28.20 13.78L28.20 13.78L28.20 13.78Q27.48 13.40 27.05 12.57L27.05 12.57L27.05 12.57Q26.61 11.75 26.61 10.49L26.61 10.49L26.61 10.49Q26.61 9.21 27.06 8.39L27.06 8.39L27.06 8.39Q27.51 7.57 28.24 7.20L28.24 7.20L28.24 7.20Q28.97 6.83 29.82 6.83L29.82 6.83ZM27.73 9.84L31.61 9.84L31.61 9.84Q31.56 8.88 31.11 8.31L31.11 8.31L31.11 8.31Q30.66 7.74 29.78 7.74L29.78 7.74L29.78 7.74Q28.97 7.74 28.41 8.24L28.41 8.24L28.41 8.24Q27.86 8.74 27.73 9.84L27.73 9.84ZM41.40 13.51L40.71 14.17L39.84 13.30L39.84 13.30Q39.47 13.65 38.87 13.90L38.87 13.90L38.87 13.90Q38.28 14.15 37.46 14.15L37.46 14.15L37.46 14.15Q36.11 14.15 35.43 13.59L35.43 13.59L35.43 13.59Q34.75 13.02 34.75 11.86L34.75 11.86L34.75 11.86Q34.75 10.68 35.47 10.13L35.47 10.13L35.47 10.13Q36.19 9.58 37.77 9.58L37.77 9.58L39.55 9.58L39.55 8.97L39.55 8.97Q39.55 8.32 39.10 8.03L39.10 8.03L39.10 8.03Q38.65 7.74 37.79 7.74L37.79 7.74L37.79 7.74Q36.44 7.74 35.90 8.36L35.90 8.36L35.21 7.69L35.21 7.69Q35.59 7.31 36.27 7.07L36.27 7.07L36.27 7.07Q36.96 6.83 37.88 6.83L37.88 6.83L37.88 6.83Q39.10 6.83 39.82 7.32L39.82 7.32L39.82 7.32Q40.54 7.81 40.54 8.75L40.54 8.75L40.54 12.66L41.40 13.51ZM35.76 11.86L35.76 11.86Q35.76 12.63 36.23 12.94L36.23 12.94L36.23 12.94Q36.69 13.26 37.69 13.26L37.69 13.26L37.69 13.26Q38.23 13.26 38.75 13.02L38.75 13.02L38.75 13.02Q39.27 12.78 39.55 12.45L39.55 12.45L39.55 10.47L38.22 10.47L38.22 10.47Q37.23 10.47 36.71 10.58L36.71 10.58L36.71 10.58Q36.19 10.68 35.97 10.98L35.97 10.98L35.97 10.98Q35.76 11.27 35.76 11.86L35.76 11.86ZM46.72 6.85L46.72 6.85Q49.32 6.85 49.32 10.49L49.32 10.49L49.32 10.49Q49.32 12.33 48.59 13.24L48.59 13.24L48.59 13.24Q47.85 14.15 46.58 14.15L46.58 14.15L46.58 14.15Q45.86 14.15 45.32 13.84L45.32 13.84L45.32 13.84Q44.77 13.52 44.42 12.98L44.42 12.98L44.42 13.01L44.28 14L43.41 14L43.41 2.80L44.42 2.80L44.42 8.04L44.42 8.04Q44.79 7.48 45.38 7.16L45.38 7.16L45.38 7.16Q45.98 6.85 46.72 6.85L46.72 6.85ZM46.37 13.24L46.37 13.24Q47.35 13.24 47.84 12.59L47.84 12.59L47.84 12.59Q48.33 11.93 48.33 10.49L48.33 10.49L48.33 10.49Q48.33 9.02 47.90 8.39L47.90 8.39L47.90 8.39Q47.47 7.76 46.51 7.76L46.51 7.76L46.51 7.76Q45.74 7.76 45.19 8.29L45.19 8.29L45.19 8.29Q44.63 8.82 44.42 9.45L44.42 9.45L44.42 11.47L44.42 11.47Q44.55 12.14 45.07 12.69L45.07 12.69L45.07 12.69Q45.60 13.24 46.37 13.24L46.37 13.24ZM56.01 13.30L56.01 13.30Q56.34 13.30 56.78 13.24L56.78 13.24L56.78 13.24Q57.22 13.17 57.41 13.13L57.41 13.13L57.41 14L57.41 14Q57.39 14 56.97 14.08L56.97 14.08L56.97 14.08Q56.56 14.15 55.80 14.15L55.80 14.15L55.80 14.15Q55.01 14.15 54.45 13.76L54.45 13.76L54.45 13.76Q53.90 13.36 53.90 12.32L53.90 12.32L53.90 3.70L51.69 3.70L51.69 2.80L54.91 2.80L54.91 12.11L54.91 12.11Q54.91 12.85 55.22 13.08L55.22 13.08L55.22 13.08Q55.52 13.30 56.01 13.30L56.01 13.30ZM63.42 6.83L63.42 6.83Q64.82 6.83 65.58 7.79L65.58 7.79L65.58 7.79Q66.33 8.75 66.33 10.33L66.33 10.33L66.33 10.33Q66.33 10.60 66.32 10.74L66.32 10.74L61.29 10.74L61.29 10.74Q61.35 12.03 61.89 12.63L61.89 12.63L61.89 12.63Q62.43 13.24 63.35 13.24L63.35 13.24L63.35 13.24Q63.99 13.24 64.48 12.95L64.48 12.95L64.48 12.95Q64.96 12.66 65.25 12.18L65.25 12.18L66.16 12.67L66.16 12.67Q65.74 13.34 65.01 13.75L65.01 13.75L65.01 13.75Q64.27 14.15 63.38 14.15L63.38 14.15L63.38 14.15Q62.52 14.15 61.80 13.78L61.80 13.78L61.80 13.78Q61.08 13.40 60.65 12.57L60.65 12.57L60.65 12.57Q60.21 11.75 60.21 10.49L60.21 10.49L60.21 10.49Q60.21 9.21 60.66 8.39L60.66 8.39L60.66 8.39Q61.11 7.57 61.84 7.20L61.84 7.20L61.84 7.20Q62.57 6.83 63.42 6.83L63.42 6.83ZM61.33 9.84L65.21 9.84L65.21 9.84Q65.16 8.88 64.71 8.31L64.71 8.31L64.71 8.31Q64.26 7.74 63.38 7.74L63.38 7.74L63.38 7.74Q62.57 7.74 62.01 8.24L62.01 8.24L62.01 8.24Q61.46 8.74 61.33 9.84L61.33 9.84ZM79.70 8.37L79.70 8.37Q80.81 8.78 81.49 9.12L81.49 9.12L81.49 9.12Q82.17 9.46 82.65 10.04L82.65 10.04L82.65 10.04Q83.13 10.63 83.13 11.47L83.13 11.47L83.13 11.47Q83.13 12.81 82.18 13.48L82.18 13.48L82.18 13.48Q81.23 14.15 79.77 14.15L79.77 14.15L79.77 14.15Q77.24 14.15 76.38 12.49L76.38 12.49L77.35 12.00L77.35 12.00Q77.64 12.60 78.25 12.92L78.25 12.92L78.25 12.92Q78.86 13.24 79.77 13.24L79.77 13.24L79.77 13.24Q80.84 13.24 81.45 12.82L81.45 12.82L81.45 12.82Q82.07 12.39 82.07 11.48L82.07 11.48L82.07 11.48Q82.07 10.93 81.76 10.56L81.76 10.56L81.76 10.56Q81.45 10.19 80.97 9.94L80.97 9.94L80.97 9.94Q80.49 9.69 79.70 9.41L79.70 9.41L79.70 9.41Q78.46 8.96 77.64 8.29L77.64 8.29L77.64 8.29Q76.82 7.63 76.82 6.48L76.82 6.48L76.82 6.48Q76.82 5.26 77.71 4.69L77.71 4.69L77.71 4.69Q78.61 4.12 79.94 4.12L79.94 4.12L79.94 4.12Q82.10 4.12 82.92 5.77L82.92 5.77L81.97 6.26L81.97 6.26Q81.69 5.64 81.19 5.33L81.19 5.33L81.19 5.33Q80.70 5.03 79.94 5.03L79.94 5.03L79.94 5.03Q79.07 5.03 78.49 5.36L78.49 5.36L78.49 5.36Q77.91 5.68 77.91 6.47L77.91 6.47L77.91 6.47Q77.91 7.15 78.39 7.61L78.39 7.61L78.39 7.61Q78.88 8.06 79.70 8.37L79.70 8.37ZM91.10 14L90.17 14L90.10 13.03L90.10 13.03Q89.71 13.55 89.10 13.85L89.10 13.85L89.10 13.85Q88.49 14.14 87.72 14.14L87.72 14.14L87.72 14.14Q86.56 14.14 85.97 13.43L85.97 13.43L85.97 13.43Q85.37 12.73 85.37 11.09L85.37 11.09L85.37 6.99L86.38 6.99L86.38 10.71L86.38 10.71Q86.38 11.63 86.49 12.16L86.49 12.16L86.49 12.16Q86.59 12.68 86.93 12.96L86.93 12.96L86.93 12.96Q87.26 13.23 87.93 13.23L87.93 13.23L87.93 13.23Q88.79 13.23 89.33 12.75L89.33 12.75L89.33 12.75Q89.88 12.28 90.08 11.77L90.08 11.77L90.08 6.99L91.08 6.99L91.08 12.59L91.10 14ZM99.04 7.78L99.04 7.78Q98.21 7.78 97.63 8.27L97.63 8.27L97.63 8.27Q97.05 8.76 96.84 9.39L96.84 9.39L96.84 13.10L99.29 13.10L99.29 14L93.84 14L93.84 13.10L95.84 13.10L95.84 7.90L93.84 7.90L93.84 7L96.66 7L96.80 8.06L96.80 8.06Q97.19 7.49 97.82 7.16L97.82 7.16L97.82 7.16Q98.45 6.83 99.25 6.83L99.25 6.83L99.25 6.83Q99.85 6.83 100.34 7.06L100.34 7.06L100.00 7.97L100.00 7.97Q99.93 7.91 99.68 7.85L99.68 7.85L99.68 7.85Q99.43 7.78 99.04 7.78L99.04 7.78ZM106.47 13.12L106.47 13.12Q107.30 13.12 107.74 13.49L107.74 13.49L107.74 13.49Q108.18 13.86 108.18 14.49L108.18 14.49L108.18 14.49Q108.18 15.05 107.86 15.53L107.86 15.53L107.86 15.53Q107.55 16.02 106.86 16.32L106.86 16.32L106.86 16.32Q106.16 16.63 105.10 16.63L105.10 16.63L105.10 16.63Q103.56 16.63 102.75 16.19L102.75 16.19L102.75 16.19Q101.95 15.75 101.95 14.94L101.95 14.94L101.95 14.94Q101.95 14.18 102.66 13.59L102.66 13.59L102.66 13.59Q102.37 13.30 102.37 12.82L102.37 12.82L102.37 12.82Q102.37 12.10 103.12 11.47L103.12 11.47L103.12 11.47Q102.12 10.84 102.12 9.37L102.12 9.37L102.12 9.37Q102.12 7.99 102.92 7.41L102.92 7.41L102.92 7.41Q103.73 6.83 105.01 6.83L105.01 6.83L105.01 6.83Q106.36 6.83 107.10 7.42L107.10 7.42L108.02 6.51L108.67 7.13L107.66 8.13L107.66 8.13Q107.90 8.64 107.90 9.37L107.90 9.37L107.90 9.37Q107.90 10.72 107.04 11.32L107.04 11.32L107.04 11.32Q106.18 11.91 105.01 11.91L105.01 11.91L105.01 11.91Q104.33 11.91 103.78 11.76L103.78 11.76L103.78 11.76Q103.38 12.25 103.38 12.63L103.38 12.63L103.38 12.63Q103.38 13.10 104.01 13.10L104.01 13.10L104.40 13.12L106.46 13.12L106.47 13.12ZM105.01 7.73L105.01 7.73Q103.99 7.73 103.59 8.09L103.59 8.09L103.59 8.09Q103.18 8.46 103.18 9.37L103.18 9.37L103.18 9.37Q103.18 10.26 103.62 10.63L103.62 10.63L103.62 10.63Q104.06 11.00 105.01 11.00L105.01 11.00L105.01 11.00Q105.95 11.00 106.39 10.63L106.39 10.63L106.39 10.63Q106.83 10.26 106.83 9.37L106.83 9.37L106.83 9.37Q106.83 8.71 106.66 8.36L106.66 8.36L106.66 8.36Q106.48 8.01 106.10 7.87L106.10 7.87L106.10 7.87Q105.71 7.73 105.01 7.73L105.01 7.73ZM107.11 14.60L107.11 14.60Q107.11 14.34 106.89 14.18L106.89 14.18L106.89 14.18Q106.67 14.01 106.08 14.01L106.08 14.01L104.01 14.01L104.01 14.01Q103.61 14.01 103.32 13.93L103.32 13.93L103.32 13.93Q103.04 14.34 103.04 14.74L103.04 14.74L103.04 14.74Q103.04 14.90 103.08 15.02L103.08 15.02L103.08 15.02Q103.39 15.78 105.10 15.78L105.10 15.78L105.10 15.78Q106.18 15.78 106.65 15.44L106.65 15.44L106.65 15.44Q107.11 15.11 107.11 14.60L107.11 14.60ZM113.82 6.83L113.82 6.83Q115.22 6.83 115.98 7.79L115.98 7.79L115.98 7.79Q116.73 8.75 116.73 10.33L116.73 10.33L116.73 10.33Q116.73 10.60 116.72 10.74L116.72 10.74L111.69 10.74L111.69 10.74Q111.75 12.03 112.29 12.63L112.29 12.63L112.29 12.63Q112.83 13.24 113.75 13.24L113.75 13.24L113.75 13.24Q114.39 13.24 114.88 12.95L114.88 12.95L114.88 12.95Q115.36 12.66 115.65 12.18L115.65 12.18L116.56 12.67L116.56 12.67Q116.14 13.34 115.41 13.75L115.41 13.75L115.41 13.75Q114.67 14.15 113.78 14.15L113.78 14.15L113.78 14.15Q112.92 14.15 112.20 13.78L112.20 13.78L112.20 13.78Q111.48 13.40 111.05 12.57L111.05 12.57L111.05 12.57Q110.61 11.75 110.61 10.49L110.61 10.49L110.61 10.49Q110.61 9.21 111.06 8.39L111.06 8.39L111.06 8.39Q111.51 7.57 112.24 7.20L112.24 7.20L112.24 7.20Q112.97 6.83 113.82 6.83L113.82 6.83ZM111.73 9.84L115.61 9.84L115.61 9.84Q115.56 8.88 115.11 8.31L115.11 8.31L115.11 8.31Q114.66 7.74 113.78 7.74L113.78 7.74L113.78 7.74Q112.97 7.74 112.41 8.24L112.41 8.24L112.41 8.24Q111.86 8.74 111.73 9.84L111.73 9.84Z"></path></g><defs data-v-423bf9ae=""><linearGradient data-v-423bf9ae="" gradientTransform="rotate(25)" id="c0edb495-7470-4d27-9d94-0bbd5926f896" x1="0%" y1="0%" x2="100%" y2="0%"><stop data-v-423bf9ae="" offset="0%" style="stop-color: rgb(169, 37, 128); stop-opacity: 1;"></stop><stop data-v-423bf9ae="" offset="100%" style="stop-color: rgb(247, 188, 0); stop-opacity: 1;"></stop></linearGradient></defs><g data-v-423bf9ae="" id="88111fff-3828-4402-b0f6-06b41de69ff9" transform="matrix(1.4717711775898643,0,0,1.4717711775898643,178.20032138354787,-25.368942534342168)" stroke="none" fill="url(#c0edb495-7470-4d27-9d94-0bbd5926f896)"><path d="M11.146 45.898l21.073-14.072a2 2 0 1 0-2.222-3.326L8.924 42.572a6.444 6.444 0 0 0-2.871 5.37 6.444 6.444 0 0 0 2.871 5.37l21.073 14.072a1.997 1.997 0 0 0 2.774-.552 2 2 0 0 0-.552-2.774L11.146 49.985a2.422 2.422 0 0 1-1.093-2.044c0-.835.399-1.579 1.093-2.043zM90.076 42.572L69.002 28.5a2 2 0 0 0-2.222 3.326l21.073 14.072a2.422 2.422 0 0 1 1.093 2.043 2.42 2.42 0 0 1-1.093 2.044L66.781 64.058a2 2 0 1 0 2.222 3.326l21.073-14.072a6.444 6.444 0 0 0 2.871-5.37 6.444 6.444 0 0 0-2.871-5.37zM59.221 17.834a2 2 0 0 0-2.513 1.297l-18.227 57.11a2 2 0 1 0 3.81 1.215l18.227-57.109a2 2 0 0 0-1.297-2.513z"></path></g><!----></svg>