<svg width="150" height="25" xmlns="http://www.w3.org/2000/svg" class="jsx-1059563290">
 <desc>Custom sticker printing from Sticker Mule</desc>

 <g>
  <title>background</title>
  <rect fill="none" id="canvas_background" height="602" width="802" y="-1" x="-1"/>
 </g>
 <g>
  <title>Layer 1</title>
  <path fill="#ffffff" id="svg_1" class="jsx-1059563290 sticker" d="m29.938,21.406c-2.123,0 -4.04,-0.233 -5.748,-1.942l2.2,-2.2c1.114,1.112 2.565,1.268 3.6,1.268c1.165,0 2.382,-0.388 2.382,-1.398c0,-0.673 -0.363,-1.14 -1.424,-1.243l-2.124,-0.2c-2.434,-0.23 -3.935,-1.29 -3.935,-3.78c0,-2.79 2.46,-4.3 5.2,-4.3c2.1,0 3.86,0.37 5.15,1.58l-2.07,2.1c-0.78,-0.7 -1.97,-0.9 -3.14,-0.9c-1.35,0 -1.92,0.62 -1.92,1.3c0,0.5 0.2,1.07 1.4,1.17l2.12,0.21c2.67,0.26 4.01,1.69 4.01,3.96c0,2.98 -2.54,4.4 -5.73,4.4l0.029,-0.025zm11.6,-0.156c-2.746,0 -3.91,-1.94 -3.91,-3.857l0,-6.68l-1.425,0l0,-2.563l1.424,0l0,-3.99l3.366,0l0,3.99l2.382,0l0,2.562l-2.382,0l0,6.474c0,0.777 0.363,1.217 1.165,1.217l1.217,0l0,2.848l-1.838,0l0.001,-0.001zm3.332,-15.795l0,-2.745l3.445,0l0,2.745l-3.445,0zm0.053,15.796l0,-13.491l3.366,0l0,13.49l-3.37,0l0.004,0.001zm10.973,0.16c-2.693,0 -6.033,-1.45 -6.033,-6.91s3.34,-6.89 6.033,-6.89c1.864,0 3.262,0.57 4.454,1.82l-2.278,2.28c-0.7,-0.75 -1.295,-1.06 -2.175,-1.06c-0.803,0 -1.424,0.29 -1.916,0.88c-0.51,0.65 -0.75,1.56 -0.75,2.98s0.24,2.36 0.75,3.01c0.5,0.6 1.12,0.88 1.92,0.88c0.88,0 1.48,-0.31 2.18,-1.06l2.28,2.25c-1.19,1.24 -2.59,1.84 -4.45,1.84l-0.015,-0.02zm13.74,-0.15l-3.313,-5.61l-1.423,1.6l0,4.02l-3.37,0l0,-18.451l3.37,0l0,10.46l4.48,-5.517l4.063,0l-4.816,5.44l5.18,8.06l-4.17,0l-0.001,-0.002zm6.98,-5.69c0,1.74 1.06,3.01 2.953,3.01c1.47,0 2.2,-0.41 3.05,-1.27l2.04,2c-1.38,1.37 -2.7,2.13 -5.13,2.13c-3.19,0 -6.24,-1.45 -6.24,-6.91c0,-4.4 2.38,-6.89 5.87,-6.89c3.75,0 5.87,2.75 5.87,6.45l0,1.51l-8.429,0l0.016,-0.03zm4.816,-3.75c-0.362,-0.8 -1.113,-1.4 -2.252,-1.4c-1.14,0 -1.89,0.6 -2.253,1.4c-0.207,0.5 -0.285,0.86 -0.31,1.45l5.125,0c-0.025,-0.59 -0.102,-0.95 -0.31,-1.45zm12.553,-0.36c-0.518,-0.51 -0.958,-0.8 -1.786,-0.8c-1.04,0 -2.18,0.78 -2.18,2.49l0,8.13l-3.37,0l0,-13.521l3.29,0l0,1.295c0.64,-0.777 1.94,-1.45 3.39,-1.45c1.32,0 2.25,0.336 3.18,1.27l-2.54,2.562l0.016,0.024z"/>
  <path fill="#ffffff" id="svg_2" class="jsx-1059563290 mule" d="m111.65,7.605c-1.683,0 -2.9,0.518 -4.04,1.71c-0.854,-1.166 -2.07,-1.71 -3.573,-1.71c-1.243,0 -2.486,0.492 -3.366,1.398l0,-1.243l-3.28,0l0,13.49l3.37,0l0,-8.156c0,-1.84 1.19,-2.46 2.25,-2.46c1.07,0 2.23,0.62 2.23,2.46l0,8.156l3.37,0l0,-8.234c0,-1.76 1.22,-2.382 2.25,-2.382c1.06,0 2.23,0.62 2.23,2.46l0,8.156l3.37,0l0,-8.622c0,-1.476 -0.39,-2.745 -1.48,-3.832c-0.75,-0.75 -1.96,-1.19 -3.31,-1.19l-0.021,-0.001zm14.63,8.312c0,1.838 -1.19,2.46 -2.252,2.46c-1.06,0 -2.227,-0.622 -2.227,-2.46l0,-8.157l-3.36,0l0,8.623c0,1.475 0.29,2.744 1.37,3.832c0.75,0.75 1.84,1.19 3.19,1.19c1.25,0 2.49,-0.465 3.37,-1.397l0,1.243l3.29,0l0,-13.491l-3.36,0l0,8.157l-0.021,0zm8.876,1.27l0,-14.374l-3.366,0l0,14.577c0,1.917 1.165,3.86 3.935,3.86l1.916,0l0,-2.85l-1.29,0c-0.85,0 -1.19,-0.413 -1.19,-1.215l-0.005,0.002zm14.844,-3.137c0,-3.703 -2.123,-6.447 -5.878,-6.447c-3.496,0 -5.878,2.486 -5.878,6.888c0,5.47 3.055,6.92 6.24,6.92c2.434,0 3.755,-0.75 5.127,-2.12l-2.04,-1.99c-0.85,0.86 -1.58,1.27 -3.05,1.27c-1.89,0 -2.95,-1.27 -2.95,-3l8.429,0l0,-1.51l0,-0.011zm-8.44,-0.803c0.025,-0.597 0.102,-0.96 0.31,-1.45c0.362,-0.805 1.113,-1.4 2.252,-1.4c1.14,0 1.89,0.595 2.252,1.4c0.208,0.49 0.285,0.852 0.31,1.45l-5.125,0l0.001,0z"/>
  <path fill="#ffffff" id="svg_3" class="jsx-1059563290 sticker" fill-rule="evenodd" d="m13.82,22.744c-0.195,0.093 -0.46,0.072 -0.733,0.08c-0.235,0.007 -0.565,0.012 -0.702,-0.11c-0.075,-0.065 -0.096,-0.207 -0.1,-0.29c-0.007,-0.1 0.018,-0.22 0.04,-0.332c0.024,-0.13 0.05,-0.3 0,-0.37c-0.06,-0.085 -0.27,-0.05 -0.382,-0.112c-0.118,-0.066 -0.152,-0.224 -0.19,-0.4c-0.013,-0.057 -0.046,-0.108 -0.05,-0.152c-0.034,-0.27 0.057,-0.634 0.12,-0.913c0.066,-0.295 0.152,-0.57 0.2,-0.843c0.074,-0.413 0.1,-0.88 0.07,-1.305c-0.013,-0.22 -0.043,-0.396 -0.01,-0.58c0.033,-0.175 0.106,-0.32 0.14,-0.493c0.012,-0.055 0.003,-0.12 0.01,-0.18c0.008,-0.054 0.04,-0.097 0.04,-0.14c0.007,-0.116 -0.03,-0.258 -0.04,-0.402c-0.023,-0.387 0.007,-0.933 0.032,-1.264c0.008,-0.116 0.062,-0.248 -0.02,-0.3c-0.403,-0.007 -0.77,0.07 -1.145,0.12c-1.01,0.13 -2.278,0.146 -3.25,-0.05c-0.093,-0.02 -0.186,-0.02 -0.272,-0.04c-0.69,-0.16 -1.326,-0.455 -1.817,-0.843c-0.07,-0.06 -0.16,-0.124 -0.25,-0.19c-0.08,-0.066 -0.17,-0.155 -0.25,-0.192c-0.39,-0.183 -0.91,0.028 -1.07,0.28c-0.06,0.102 -0.11,0.232 -0.17,0.352c-0.06,0.115 -0.11,0.236 -0.16,0.35c-0.26,0.594 -0.55,1.16 -0.81,1.757c-0.15,0.344 -0.32,0.727 -0.43,1.114c-0.24,0.82 -0.01,1.918 0.17,2.69c0.02,0.07 0.06,0.14 0.08,0.22c0.06,0.186 0.19,0.434 0.33,0.56c0.08,0.067 0.21,0.107 0.29,0.182c0.11,0.092 0.19,0.275 0.27,0.43c0.04,0.066 0.09,0.14 0.13,0.22c0.1,0.174 0.14,0.33 -0.06,0.433c-0.14,0.08 -0.36,0.1 -0.57,0.11c-0.09,0.03 -0.06,0.15 -0.12,0.22c-0.03,0.04 -0.17,0.09 -0.24,0.11c-0.27,0.08 -0.72,0.08 -0.93,0c-0.1,-0.03 -0.22,-0.11 -0.25,-0.2c-0.05,-0.16 0.08,-0.37 -0.04,-0.5c-0.05,-0.05 -0.16,-0.04 -0.26,-0.09a0.669,0.669 0 0 1 -0.34,-0.36c-0.16,-0.4 -0.06,-1.04 -0.08,-1.53c0,-0.14 -0.02,-0.3 -0.03,-0.46c-0.01,-0.29 -0.08,-0.58 -0.11,-0.87c-0.01,-0.14 -0.06,-0.26 -0.09,-0.39c-0.04,-0.2 -0.08,-0.43 -0.14,-0.64c-0.06,-0.23 -0.07,-0.45 0.01,-0.65c0.02,-0.05 0.08,-0.1 0.11,-0.18c0.05,-0.11 0.07,-0.25 0.06,-0.35c-0.03,-0.05 -0.17,-0.01 -0.21,-0.07c-0.08,-0.63 -0.18,-1.27 -0.23,-1.93c-0.02,-0.22 -0.02,-0.45 -0.04,-0.68c-0.04,-0.45 -0.01,-0.92 -0.05,-1.35c-0.02,-0.21 -0.07,-0.41 -0.1,-0.62c-0.081,-0.601 -0.241,-1.351 -0.121,-1.951c0.08,-0.39 0.218,-0.708 0.44,-0.995c0.16,-0.2 0.33,-0.39 0.51,-0.57c0.18,-0.17 0.38,-0.34 0.59,-0.49c0.14,-0.1 0.28,-0.214 0.43,-0.284c0.34,-0.16 0.78,-0.29 1.24,-0.31c0.46,-0.02 0.988,-0.03 1.447,0.06c0.44,0.08 0.876,0.15 1.306,0.24c0.42,0.08 0.836,0.2 1.235,0.3c0.05,0.01 0.096,0.04 0.15,0.06c0.127,0.03 0.27,0.04 0.41,0.08c0.37,0.1 0.86,0.15 1.318,0.15c0.495,0 0.94,-0.01 1.347,-0.11c0.06,-0.02 0.1,-0.05 0.17,-0.07c0.06,-0.03 0.14,-0.02 0.2,-0.04c0.04,-0.02 0.08,-0.06 0.13,-0.08c0.23,-0.11 0.43,-0.23 0.64,-0.37c0.162,-0.12 0.3,-0.22 0.52,-0.3c0.1,-0.03 0.195,-0.09 0.29,-0.12c0.21,-0.06 0.434,-0.12 0.593,-0.23c0.25,-0.16 0.437,-0.39 0.645,-0.57c0.22,-0.19 0.44,-0.37 0.66,-0.55c0.47,-0.36 0.93,-0.7 1.37,-1.05c0.22,-0.18 0.47,-0.34 0.73,-0.49c0.51,-0.29 1.02,-0.63 1.75,-0.68c0.29,-0.02 0.59,-0.03 0.88,0.01c0.08,0.01 0.19,0.06 0.26,0.04c0.08,-0.02 0.14,-0.14 0.19,-0.23c0.11,-0.19 0.19,-0.32 0.28,-0.55c0.06,-0.14 0.03,-0.29 0.18,-0.28c0.15,0.01 0.12,0.39 0.13,0.53c0.01,0.18 -0.02,0.41 0.01,0.53c0.02,0.09 0.13,0.21 0.25,0.21c0.08,0 0.14,-0.06 0.21,-0.11c0.08,-0.04 0.15,-0.07 0.2,-0.11c0.12,-0.09 0.26,-0.23 0.38,-0.36c0.1,-0.1 0.26,-0.34 0.43,-0.32c0.29,0.03 0,0.46 -0.06,0.59c-0.15,0.33 -0.29,0.58 -0.46,0.89c-0.07,0.12 -0.23,0.3 -0.23,0.43c0,0.09 0.08,0.15 0.12,0.25c0.02,0.045 0.03,0.09 0.05,0.14c0.1,0.23 0.18,0.55 0.25,0.81c0.07,0.226 0.12,0.46 0.21,0.68c0.08,0.22 0.2,0.42 0.28,0.636c0.03,0.06 0.03,0.127 0.05,0.18c0.19,0.47 0.36,1.007 0.58,1.46c0.09,0.185 0.22,0.41 0.21,0.685c0,0.3 -0.15,0.44 -0.29,0.66c-0.07,0.12 -0.17,0.297 -0.28,0.33c-0.08,0.03 -0.17,0 -0.25,0.01c-0.11,0.02 -0.19,0.09 -0.29,0.1c-0.27,0.03 -0.51,-0.18 -0.59,-0.38c-0.02,-0.07 -0.01,-0.16 -0.03,-0.24c-0.06,-0.327 -0.22,-0.484 -0.45,-0.69c-0.14,-0.136 -0.26,-0.24 -0.44,-0.334c-0.26,-0.132 -0.54,-0.214 -0.81,-0.36c-0.1,-0.054 -0.223,-0.107 -0.31,-0.09c-0.143,0.027 -0.29,0.263 -0.4,0.41c-0.704,0.934 -1.33,1.893 -2.024,2.81c-0.46,0.607 -0.95,1.223 -1.315,1.917c-0.09,0.178 -0.15,0.38 -0.22,0.58c-0.07,0.2 -0.11,0.42 -0.18,0.64c-0.27,0.76 -0.35,1.69 -0.59,2.49c-0.03,0.08 -0.04,0.18 -0.06,0.27c-0.11,0.41 -0.23,0.87 -0.35,1.31c-0.1,0.32 -0.13,0.76 -0.147,1.185c-0.01,0.397 -0.03,0.963 0.11,1.215c0.08,0.13 0.35,0.18 0.457,0.32c0.07,0.095 0.12,0.284 0.19,0.41c0.05,0.09 0.19,0.275 0.18,0.41c-0.01,0.103 -0.09,0.175 -0.17,0.21c-0.08,0.043 -0.21,0.02 -0.29,0.06c-0.09,0.05 -0.05,0.16 -0.14,0.22l-0.072,-0.061z" clip-rule="evenodd"/>
 </g>
</svg>